

[center]
[img]http://img820.imageshack.us/img820/779/gudny.jpg[/img]
Release Name : Atlantis End of a World Birth of a Legend 2011 BRRip XviD - ZOMBiES
Rating : 6.0/10
Genre : Drama
Stars : Stephanie Leonidas, Reece Ritchie, Langley Kirkwood, Isadora Verwey
Director : Tony Mitchell
Writers : Rhidian Brook
Release Date : N/A
Movie Runtime : 1 hr 28 mins
Rated Under : N/A
Movie Plot : Tells the story of the greatest natural disaster of the ancient world, an event that experts believe inspired the legend of Atlantis. 
http://www.imdb.com/title/tt1744825/

Format                           : AVI
Format/Info                      : Audio Video Interleave
File size                        : 701 MiB
Duration                         : 1h 28mn
Overall bit rate mode            : Variable
Overall bit rate                 : 1 104 Kbps
Writing application              : MEncoder SVN-r33823-4.1.2
Writing library                  : MPlayer

Video
ID                               : 0
Format                           : xvid
Codec ID                         : xvid
Duration                         : 1h 28mn
Bit rate                         : 968 Kbps
Width                            : 626 pixels
Height                           : 352 pixels
Display aspect ratio             : 16:9
Frame rate                       : 23.976 fps
Bits/(Pixel*Frame)               : 0.183
Stream size                      : 614 MiB (88%)

Audio
ID                               : 1
Format                           : MPEG Audio
Format version                   : Version 1
Format profile                   : Layer 3
Mode                             : Joint stereo
Mode extension                   : MS Stereo
Codec ID                         : 55
Codec ID/Hint                    : MP3
Duration                         : 1h 28mn
Bit rate mode                    : Variable
Bit rate                         : 123 Kbps
Channel(s)                       : 2 channels
Sampling rate                    : 48.0 KHz
Compression mode                 : Lossy
Stream size                      : 78.2 MiB (11%)
Alignment                        : Aligned on interleaves
Interleave, duration             : 24 ms (0.58 video frame)
Interleave, preload duration     : 477 ms

Source : 720p.BluRay.DTS.x264-xiaofriend
Watch out for Contraband 2012    . 

GREETS:

FLAWL3SS,ViSiON,Rx,ELEKTRI4KA,26K,DTRG,3LT0N,RemixHD
And to all the other p2p grps past and present .

Looking for these,syncers,cammers,audio,silver supplier.....Have anything to offer????......
You know how to find us .

[img]http://img576.imageshack.us/img576/1511/3phan.jpg[/img]
[img]http://img819.imageshack.us/img819/492/6rofe.jpg[/img]
[img]http://img836.imageshack.us/img836/8725/yif6a.jpg[/img][/center]